{
   "accessors" : 
   [
      {
         "bufferView" : 0,
         "byteOffset" : 0,
         "componentType" : 5126,
         "count" : 44182,
         "max" : [ 192.0, 192.0, 68.191917419433594 ],
         "min" : [ 0.0, 0.0, 0.0 ],
         "type" : "VEC3"
      },
      {
         "bufferView" : 1,
         "byteOffset" : 0,
         "componentType" : 5125,
         "count" : 117942,
         "type" : "SCALAR"
      },
      {
         "bufferView" : 2,
         "byteOffset" : 0,
         "componentType" : 5126,
         "count" : 735,
         "max" : [ 175.87229919433594, 147.12919616699219, 43.576309204101563 ],
         "min" : [ 59.402347564697266, 0.0, 21.225967407226563 ],
         "type" : "VEC3"
      },
      {
         "bufferView" : 3,
         "byteOffset" : 0,
         "componentType" : 5125,
         "count" : 1462,
         "type" : "SCALAR"
      },
      {
         "bufferView" : 4,
         "byteOffset" : 0,
         "componentType" : 5126,
         "count" : 18402,
         "max" : [ 189.0, 189.0, 70.0 ],
         "min" : [ 0.0, 0.0, 7.0 ],
         "type" : "VEC3"
      },
      {
         "bufferView" : 5,
         "byteOffset" : 0,
         "componentType" : 5125,
         "count" : 18402,
         "type" : "SCALAR"
      },
      {
         "bufferView" : 6,
         "byteOffset" : 0,
         "componentType" : 5126,
         "count" : 20633,
         "max" : [ 192.0185546875, 129.73548889160156, 99.97900390625 ],
         "min" : [ 54.472183227539063, 0.0060298927128314972, 0.18822120130062103 ],
         "type" : "VEC3"
      },
      {
         "bufferView" : 7,
         "byteOffset" : 0,
         "componentType" : 5126,
         "count" : 20633,
         "normalized" : false,
         "type" : "VEC2"
      },
      {
         "bufferView" : 8,
         "byteOffset" : 0,
         "componentType" : 5125,
         "count" : 40730,
         "type" : "SCALAR"
      },
      {
         "bufferView" : 10,
         "byteOffset" : 0,
         "componentType" : 5126,
         "count" : 17423,
         "max" : [ 174.0, 147.0, 100.0 ],
         "min" : [ 57.0, 0.0, 21.0 ],
         "type" : "VEC3"
      },
      {
         "bufferView" : 11,
         "byteOffset" : 0,
         "componentType" : 5121,
         "count" : 17423,
         "normalized" : true,
         "type" : "VEC4"
      },
      {
         "bufferView" : 12,
         "byteOffset" : 0,
         "componentType" : 5125,
         "count" : 17423,
         "type" : "SCALAR"
      }
   ],
   "asset" : 
   {
      "generator" : "VTK",
      "version" : "2.0"
   },
   "bufferViews" : 
   [
      {
         "buffer" : 0,
         "byteLength" : 530184,
         "byteOffset" : 0
      },
      {
         "buffer" : 1,
         "byteLength" : 471768,
         "byteOffset" : 0
      },
      {
         "buffer" : 2,
         "byteLength" : 8820,
         "byteOffset" : 0
      },
      {
         "buffer" : 3,
         "byteLength" : 5848,
         "byteOffset" : 0
      },
      {
         "buffer" : 4,
         "byteLength" : 220824,
         "byteOffset" : 0
      },
      {
         "buffer" : 5,
         "byteLength" : 73608,
         "byteOffset" : 0
      },
      {
         "buffer" : 6,
         "byteLength" : 247596,
         "byteOffset" : 0
      },
      {
         "buffer" : 7,
         "byteLength" : 165064,
         "byteOffset" : 0
      },
      {
         "buffer" : 8,
         "byteLength" : 162920,
         "byteOffset" : 0
      },
      {
         "buffer" : 9,
         "byteLength" : 146,
         "byteOffset" : 0
      },
      {
         "buffer" : 10,
         "byteLength" : 209076,
         "byteOffset" : 0
      },
      {
         "buffer" : 11,
         "byteLength" : 69692,
         "byteOffset" : 0
      },
      {
         "buffer" : 12,
         "byteLength" : 69692,
         "byteOffset" : 0
      }
   ],
   "buffers" : 
   [
      {
         "byteLength" : 530184,
         "uri" : "data:application/octet-stream;base64,"
      },
      {
         "byteLength" : 471768,
         "uri" : "data:application/octet-stream;base64,"
      },
      {
         "byteLength" : 8820,
         "uri" : "data:application/octet-stream;base64,"
      },
      {
         "byteLength" : 5848,
         "uri" : "data:application/octet-stream;base64,"
      },
      {
         "byteLength" : 220824,
         "uri" : "data:application/octet-stream;base64,"
      },
      {
         "byteLength" : 73608,
         "uri" : "data:application/octet-stream;base64,"
      },
      {
         "byteLength" : 247596,
         "uri" : "data:application/octet-stream;base64,"
      },
      {
         "byteLength" : 165064,
         "uri" : "data:application/octet-stream;base64,"
      },
      {
         "byteLength" : 162920,
         "uri" : "data:application/octet-stream;base64,"
      },
      {
         "byteLength" : 146,
         "uri" : "data:application/octet-stream;base64,"
      },
      {
         "byteLength" : 209076,
         "uri" : "data:application/octet-stream;base64,"
      },
      {
         "byteLength" : 69692,
         "uri" : "data:application/octet-stream;base64,"
      },
      {
         "byteLength" : 69692,
         "uri" : "data:application/octet-stream;base64,"
      }
   ],
   "cameras" : 
   [
      {
         "perspective" : 
         {
            "aspectRatio" : 1.3203517587939699,
            "yfov" : 30.0,
            "zfar" : 619.05148448118234,
            "znear" : 0.6190514844811823
         },
         "type" : "perspective"
      }
   ],
   "images" : 
   [
      {
         "bufferView" : 9,
         "mimeType" : "image/png"
      }
   ],
   "materials" : 
   [
      {
         "pbrMetallicRoughness" : 
         {
            "baseColorFactor" : [ 0.68627450980392157, 0.68627450980392157, 0.51372549019607838, 1.0 ],
            "metallicFactor" : 0.0,
            "roughnessFactor" : 1.0
         }
      },
      {
         "pbrMetallicRoughness" : 
         {
            "baseColorFactor" : [ 1.0, 0.0, 0.0, 1.0 ],
            "metallicFactor" : 0.0,
            "roughnessFactor" : 1.0
         }
      },
      {
         "pbrMetallicRoughness" : 
         {
            "baseColorFactor" : [ 0.0, 0.66666666666666663, 0.0, 1.0 ],
            "metallicFactor" : 0.0,
            "roughnessFactor" : 1.0
         }
      },
      {
         "pbrMetallicRoughness" : 
         {
            "baseColorFactor" : [ 1.0, 1.0, 1.0, 1.0 ],
            "baseColorTexture" : 
            {
               "index" : 0,
               "texCoord" : 0
            },
            "metallicFactor" : 0.0,
            "roughnessFactor" : 1.0
         }
      },
      {
         "pbrMetallicRoughness" : 
         {
            "baseColorFactor" : [ 1.0, 1.0, 1.0, 1.0 ],
            "metallicFactor" : 0.0,
            "roughnessFactor" : 1.0
         }
      }
   ],
   "meshes" : 
   [
      {
         "name" : "mesh0",
         "primitives" : 
         [
            {
               "attributes" : 
               {
                  "POSITION" : 0
               },
               "indices" : 1,
               "material" : 0,
               "mode" : 4
            }
         ]
      },
      {
         "name" : "mesh1",
         "primitives" : 
         [
            {
               "attributes" : 
               {
                  "POSITION" : 2
               },
               "indices" : 3,
               "material" : 1,
               "mode" : 1
            }
         ]
      },
      {
         "name" : "mesh2",
         "primitives" : 
         [
            {
               "attributes" : 
               {
                  "POSITION" : 4
               },
               "indices" : 5,
               "material" : 2,
               "mode" : 0
            }
         ]
      },
      {
         "name" : "mesh3",
         "primitives" : 
         [
            {
               "attributes" : 
               {
                  "POSITION" : 6,
                  "TEXCOORD_0" : 7
               },
               "indices" : 8,
               "material" : 3,
               "mode" : 1
            }
         ]
      },
      {
         "name" : "mesh4",
         "primitives" : 
         [
            {
               "attributes" : 
               {
                  "COLOR_0" : 10,
                  "POSITION" : 9
               },
               "indices" : 11,
               "material" : 4,
               "mode" : 0
            }
         ]
      }
   ],
   "nodes" : 
   [
      {
         "mesh" : 0,
         "name" : "mesh0"
      },
      {
         "mesh" : 1,
         "name" : "mesh1"
      },
      {
         "mesh" : 2,
         "name" : "mesh2"
      },
      {
         "mesh" : 3,
         "name" : "mesh3"
      },
      {
         "mesh" : 4,
         "name" : "mesh4"
      },
      {
         "camera" : 0,
         "matrix" : 
         [
            0.34521179510381095,
            -0.070254810343153951,
            0.93589159529555133,
            0.0,
            0.917503638671053,
            0.23513473506690707,
            -0.32077831814259727,
            0.0,
            -0.1975244024078604,
            0.96942040312171229,
            0.14563032810769447,
            0.0,
            -99.504806665623306,
            -45.165571951011017,
            -343.01239692118565,
            1.0
         ],
         "name" : "Camera Node"
      },
      {
         "children" : [ 0, 1, 2, 3, 4, 5 ],
         "name" : "Renderer Node"
      }
   ],
   "samplers" : 
   [
      {
         "magFilter" : 9728,
         "minFilter" : 9728,
         "wrapS" : 33071,
         "wrapT" : 33071
      }
   ],
   "scene" : 0,
   "scenes" : 
   [
      {
         "name" : "Layer 0",
         "nodes" : [ 6 ]
      }
   ],
   "textures" : 
   [
      {
         "sampler" : 0,
         "source" : 0
      }
   ]
}